<?xml version="1.0" standalone="no"?><!DOCTYPE svg PUBLIC "-//W3C//DTD SVG 1.1//EN" "http://www.w3.org/Graphics/SVG/1.1/DTD/svg11.dtd"><svg t="1576128287246" class="icon" viewBox="0 0 1570 1024" version="1.1" xmlns="http://www.w3.org/2000/svg" p-id="2732" xmlns:xlink="http://www.w3.org/1999/xlink" width="306.640625" height="200"><defs><style type="text/css"></style></defs><path d="M1189.7 440.74970703c0-3.74941406 0.63017578-7.49970703 0.63017578-11.25C1190.33017578 226.40029297 1030.76035156 62 833.93017578 62 691.94023437 62 569.92871094 147.62041016 512.63017578 271.39941406a180.39023437 180.39023437 0 0 0-82.50029297-20.33964843c-90.9 0-166.68017578 68.42988281-181.1399414 157.80058593C139.93964844 447.01982422 62 552.97988281 62 677.62988281 62 834.49970703 185.51005859 962 337.69970703 962h315.72070313V712.01005859H504.95029297l247.05-261.60029296 247.05 261.30058593h-148.5v249.98994141h339.77988281c139.23017578 0 251.66953125-117.2109375 251.66953125-260.63964844 0-143.43046875-113.03964844-260.01035156-252.29970703-260.3109375z" fill="#515151" p-id="2733"></path></svg>