<?xml version="1.0" standalone="no"?><!DOCTYPE svg PUBLIC "-//W3C//DTD SVG 1.1//EN" "http://www.w3.org/Graphics/SVG/1.1/DTD/svg11.dtd"><svg t="1576128325919" class="icon" viewBox="0 0 1024 1024" version="1.1" xmlns="http://www.w3.org/2000/svg" p-id="3110" xmlns:xlink="http://www.w3.org/1999/xlink" width="200" height="200"><defs><style type="text/css"></style></defs><path d="M957.44 380.928c-1.024-5.12-2.048-9.216-4.096-13.312-1.024 1.024-3.072 1.024-4.096 1.024-105.472 5.12-214.016 7.168-321.536 7.168H266.24c-11.264 0-20.48-9.216-20.48-20.48s9.216-20.48 20.48-20.48h332.8c35.84 1.024 71.68 0 107.52 0L598.016 226.304c-27.648-27.648-58.368-53.248-90.112-76.8-18.432-14.336-40.96-22.528-64.512-23.552-94.208-5.12-165.888-8.192-212.992-8.192-41.984 0-80.896 3.072-116.736 7.168-23.552 3.072-41.984 21.504-44.032 45.056C57.344 285.696 51.2 402.432 51.2 517.12c0 113.664 6.144 223.232 17.408 325.632 3.072 24.576 22.528 43.008 47.104 45.056 131.072 12.288 265.216 18.432 397.312 18.432 132.096 0 266.24-6.144 398.336-18.432 23.552-2.048 41.984-19.456 46.08-43.008 11.264-68.608 16.384-145.408 16.384-225.28s-6.144-159.744-16.384-238.592zM432.128 558.08c14.336-14.336 35.84-31.744 67.584-55.296 7.168-5.12 17.408-5.12 24.576 0 30.72 23.552 53.248 40.96 66.56 55.296 8.192 8.192 8.192 20.48 0 28.672-4.096 4.096-9.216 6.144-14.336 6.144s-10.24-2.048-14.336-6.144c-7.168-7.168-17.408-16.384-29.696-26.624v110.592c0 11.264-9.216 20.48-20.48 20.48s-20.48-9.216-20.48-20.48V560.128c-13.312 10.24-23.552 19.456-30.72 26.624-8.192 8.192-20.48 8.192-28.672 0s-8.192-21.504 0-28.672z m186.368 194.56c-34.816 7.168-70.656 10.24-106.496 10.24s-70.656-3.072-106.496-10.24c-11.264-2.048-18.432-13.312-16.384-24.576 2.048-11.264 13.312-18.432 24.576-16.384 65.536 13.312 131.072 13.312 196.608 0 11.264-2.048 21.504 5.12 24.576 16.384 2.048 11.264-5.12 21.504-16.384 24.576z" p-id="3111" data-spm-anchor-id="a313x.7781069.0.i2" class="selected" fill="#707070"></path></svg>